<svg width="21" height="22" viewBox="0 0 21 22" fill="none" xmlns="http://www.w3.org/2000/svg">
<path d="M12.0576 5.19326C12.0576 7.49899 10.6323 9.43838 8.67768 10.1279C8.69804 10.1064 8.18901 10.365 7.15059 10.1279C6.11218 9.91245 6.98771 9.56767 6.41759 9.61077C5.94929 9.65387 5.31809 9.76161 5.48098 10.0848C3.5874 9.37374 2.22321 7.43434 2.22321 5.19326C2.22321 2.30572 4.42221 0 7.13023 0C7.80215 0 8.4537 0.150842 9.02381 0.409428C8.77948 0.624916 8.39262 0.883501 7.82251 0.90505C6.84518 0.969696 7.45601 1.42222 6.80445 1.31448C6.13254 1.20673 6.19362 1.01279 5.72532 1.14209C5.27737 1.24983 4.66654 1.09899 4.56473 1.48687C4.44257 1.87475 4.42221 2.09024 4.01498 2.45657C3.60776 2.8229 2.75259 3.6633 2.93584 4.22357C3.11909 4.76229 3.2209 4.93468 3.62812 4.87003C4.03534 4.84848 4.11679 5.23636 4.19823 5.5165C4.25932 5.77508 4.19823 6.4 4.46293 6.72323C4.72762 7.06801 4.54437 7.41279 4.80907 7.39124C5.07376 7.3697 5.19593 7.11111 5.35881 6.72323C5.50134 6.33535 5.44026 6.29225 5.56243 6.09832C5.80676 5.68889 5.37918 5.71044 5.60315 5.3872C5.82712 5.08552 6.03073 4.99933 6.1529 4.74074C6.29543 4.4606 6.72301 4.26667 6.64157 3.87879L6.8859 3.90034C6.8859 3.90034 7.08951 4.18047 7.27276 4.13737C7.27276 4.13737 7.27276 4.93468 7.67998 4.99932C7.67998 4.99932 7.94468 5.04242 7.82251 4.5468C7.82251 4.5468 8.14829 3.96498 8.3519 4.18047C8.55551 4.39596 8.61659 4.82693 8.73876 5.21481C8.86093 5.58114 9.24779 5.06397 9.41068 4.56835C9.57357 4.09427 9.96043 3.90034 10.0215 3.36161C10.0826 2.84444 9.8179 2.52121 10.0215 1.96094C10.103 1.70236 10.103 1.37912 10.0419 1.05589C11.3246 2.02559 12.0576 3.5771 12.0576 5.19326ZM11.2228 6.42155C11.4264 6.14141 11.4875 5.94747 11.0396 5.71044C10.7545 5.55959 10.6527 5.40875 10.4491 5.5596C10.4491 5.5596 10.6731 6.11986 10.1844 6.37845C9.69573 6.65858 9.30887 6.50774 9.26815 6.96027C9.22743 7.43434 8.96273 7.75757 9.26815 7.75757C9.55321 7.75757 9.57357 7.67138 9.8179 7.75757C10.0419 7.82222 9.61429 8.33939 10.0215 8.29629C10.4287 8.2532 11.1821 8.23165 11.0396 7.47744C10.8767 6.74478 10.9988 6.70168 11.2228 6.42155Z" fill="#00C4EE"/>
<path d="M10.673 17.3037H10.388L10.4083 17.0882C10.4083 16.9805 10.4083 16.8512 10.4083 16.7434C10.4083 16.4202 10.388 16.0754 10.3269 15.7522C10.2862 15.5367 10.2454 15.2997 10.1844 15.0842L10.164 14.998L10.2047 14.9333C10.5305 14.3946 10.9173 13.8774 11.3857 13.468C11.4467 13.4034 11.5078 13.3603 11.5689 13.2956C11.4671 13.3603 11.3857 13.4249 11.2838 13.4896C10.9173 13.7697 10.5509 14.0714 10.2251 14.4162L10.0418 14.6101L9.94001 14.3515C9.7364 13.8774 9.49207 13.4465 9.16629 13.037C9.08485 12.9293 9.0034 12.8431 8.92196 12.7569L8.84052 12.6707L8.88124 12.5414C9.0034 12.2613 9.12557 11.9811 9.24774 11.701C9.85857 10.4512 10.9581 9.30909 12.5462 8.36094C13.5032 7.77912 14.5416 7.30505 15.5393 6.83097C16.028 6.61548 16.5167 6.37845 17.0053 6.14141C18.2066 5.53804 19.5912 4.65454 19.7337 2.99528L19.7948 2.32727L20.1002 2.93064C20.7111 4.15892 20.9147 5.88282 20.65 7.54208C20.2631 10.4296 19.0414 12.9939 17.2497 14.7394C15.519 16.3986 13.1978 17.3037 10.673 17.3037ZM10.5916 15.0842C10.6527 15.2997 10.6934 15.4936 10.7137 15.7091C10.7748 16.1185 10.7952 16.5279 10.7952 16.9374C13.1774 16.9158 15.3764 16.0323 16.985 14.4593C18.736 12.7784 19.8966 10.3003 20.2835 7.47744C20.5074 6.14141 20.4056 4.76229 19.9984 3.68484C19.6115 5.12862 18.3084 5.94747 17.1682 6.52929C16.6795 6.76633 16.1909 7.00336 15.7022 7.21885C14.7249 7.67138 13.6865 8.14545 12.7499 8.72727C11.2431 9.63232 10.164 10.7313 9.59388 11.9165C9.47171 12.1535 9.3699 12.3906 9.28846 12.6061C9.65496 13.0155 9.96038 13.468 10.1844 13.9636C10.4694 13.6835 10.7748 13.4249 11.1006 13.1879C11.8336 12.6492 12.6073 12.1966 13.3607 11.7657C13.7272 11.5502 14.114 11.3347 14.4805 11.1192L14.6842 11.4424C14.2973 11.7441 13.9104 12.0242 13.5236 12.3044C12.8924 12.7569 12.2408 13.231 11.6707 13.7697C11.2431 14.136 10.897 14.5885 10.5916 15.0842Z" fill="#41E296"/>
<path d="M10.388 21.0748C9.49212 19.0492 7.0895 19.1138 3.36342 17.196C-0.36267 15.2781 0.73683 7.62831 0.696108 7.8869C0.635025 8.53336 3.26161 10.1711 6.60083 11.4209C7.74106 11.8519 8.53514 12.4552 9.08489 13.1448C9.43103 13.5758 9.71609 14.0499 9.89934 14.5886C10.0419 14.998 10.1437 15.4074 10.2048 15.7738C10.2658 16.1185 10.2658 16.4633 10.2862 16.7435C10.2862 17.4761 10.1844 17.9717 10.1844 17.9717C9.87898 17.5192 9.53284 17.1098 9.16634 16.7004C7.94467 15.3643 6.78408 14.761 6.19361 14.5239C6.07144 14.4808 5.94928 14.4377 5.82711 14.3946C5.78639 14.3946 5.76603 14.3946 5.78639 14.3946C5.92892 14.4808 6.07144 14.567 6.19361 14.6748C7.15058 15.3212 7.88359 15.9893 8.4537 16.6573C8.65731 16.8943 8.84056 17.1313 9.02381 17.3684C10.5509 19.4802 10.4491 21.2041 10.388 21.0748Z" fill="#41E296"/>
</svg>
