<svg width="33" height="28" viewBox="0 0 33 28" fill="none" xmlns="http://www.w3.org/2000/svg">
<g filter="url(#filter0_d)">
<path d="M23.1636 2.5796C21.5701 1.84847 19.8614 1.30981 18.0749 1.00129C18.0424 0.99534 18.0099 1.01022 17.9931 1.03998C17.7733 1.43083 17.5299 1.94072 17.3595 2.3415C15.4379 2.05382 13.5262 2.05382 11.6441 2.3415C11.4736 1.93182 11.2213 1.43083 11.0006 1.03998C10.9838 1.01121 10.9513 0.996333 10.9188 1.00129C9.13324 1.30882 7.42454 1.84748 5.83014 2.5796C5.81634 2.58555 5.80451 2.59548 5.79666 2.60836C2.55562 7.45041 1.66776 12.1734 2.10331 16.8379C2.10528 16.8607 2.11809 16.8826 2.13583 16.8964C4.27418 18.4668 6.34553 19.4201 8.37842 20.052C8.41095 20.062 8.44542 20.0501 8.46613 20.0233C8.94701 19.3666 9.37567 18.6741 9.7432 17.946C9.76489 17.9033 9.74419 17.8527 9.69986 17.8359C9.01993 17.5779 8.3725 17.2635 7.74972 16.9064C7.70046 16.8776 7.69651 16.8071 7.74183 16.7734C7.87289 16.6752 8.00398 16.573 8.12912 16.4698C8.15176 16.451 8.18331 16.447 8.20993 16.4589C12.3013 18.3269 16.7308 18.3269 20.7739 16.4589C20.8005 16.446 20.8321 16.45 20.8557 16.4689C20.9809 16.572 21.1119 16.6752 21.244 16.7734C21.2893 16.8071 21.2863 16.8776 21.2371 16.9064C20.6143 17.2704 19.9669 17.5779 19.2859 17.8349C19.2416 17.8517 19.2219 17.9033 19.2436 17.946C19.619 18.6731 20.0477 19.3655 20.5197 20.0223C20.5394 20.0501 20.5749 20.062 20.6074 20.052C22.6501 19.4201 24.7215 18.4668 26.8598 16.8964C26.8786 16.8826 26.8904 16.8617 26.8924 16.8389C27.4136 11.4462 26.0193 6.76195 23.1961 2.60935C23.1892 2.59548 23.1774 2.58555 23.1636 2.5796ZM10.3542 13.9977C9.12239 13.9977 8.10743 12.8668 8.10743 11.478C8.10743 10.0892 9.10271 8.95829 10.3542 8.95829C11.6155 8.95829 12.6206 10.0991 12.6009 11.478C12.6009 12.8668 11.6056 13.9977 10.3542 13.9977ZM18.6612 13.9977C17.4294 13.9977 16.4145 12.8668 16.4145 11.478C16.4145 10.0892 17.4097 8.95829 18.6612 8.95829C19.9225 8.95829 20.9276 10.0991 20.908 11.478C20.908 12.8668 19.9225 13.9977 18.6612 13.9977Z" fill="black"/>
</g>
<defs>
<filter id="filter0_d" x="0" y="0" width="33" height="27.0555" filterUnits="userSpaceOnUse" color-interpolation-filters="sRGB">
<feFlood flood-opacity="0" result="BackgroundImageFix"/>
<feColorMatrix in="SourceAlpha" type="matrix" values="0 0 0 0 0 0 0 0 0 0 0 0 0 0 0 0 0 0 127 0"/>
<feOffset dx="2" dy="3"/>
<feGaussianBlur stdDeviation="2"/>
<feColorMatrix type="matrix" values="0 0 0 0 0 0 0 0 0 0 0 0 0 0 0 0 0 0 0.45 0"/>
<feBlend mode="normal" in2="BackgroundImageFix" result="effect1_dropShadow"/>
<feBlend mode="normal" in="SourceGraphic" in2="effect1_dropShadow" result="shape"/>
</filter>
</defs>
</svg>
