<svg width="59" height="68" viewBox="0 0 59 68" fill="none" xmlns="http://www.w3.org/2000/svg">
<path d="M57.0858 56.222C56.9405 56.1186 42.5547 45.6984 39.2952 31.8473L39.0908 30.9907L31.1296 34.2853C29.9817 33.3868 25.8282 29.5994 24.4968 21.3312C26.4757 20.0677 28.59 19.0302 30.8002 18.238C32.0364 19.0122 37.3513 22.1991 42.032 22.7944C42.66 22.8728 43.2922 22.9116 43.925 22.9104C47.0277 22.828 50.0856 22.1497 52.9322 20.9127L54.0067 20.4192L53.1014 19.6584C52.9097 19.4982 48.3459 15.7048 43.0751 15.0346C41.5247 14.8647 39.9598 14.8748 38.4116 15.0646C39.5711 14.2073 40.641 13.2351 41.6052 12.163C45.1201 8.13527 46.1055 2.24602 46.1459 1.99517L46.3346 0.828552L45.1994 1.15577C44.9568 1.22616 39.2286 2.91394 35.7145 6.94394C33.1985 9.82829 31.4643 14.2821 30.6489 16.7C30.1906 16.8572 29.7376 17.0204 29.2936 17.1957L29.2389 17.2189C24.3831 19.2426 20.0042 22.2597 16.3837 26.0763C15.9455 19.1205 14.7696 12.2309 12.8756 5.52348L12.7153 4.99034H0.663513L0.954045 5.95553C3.4318 14.1735 4.7961 25.1329 4.7961 36.814C4.7961 48.108 3.50967 58.8053 1.17419 66.9334L0.902378 67.8889H12.9392L13.095 67.3468C15.4694 59.0793 16.7768 48.2361 16.7768 36.814C16.7768 33.8578 16.6899 30.9465 16.5207 28.1115C18.5095 25.9219 20.7294 23.9539 23.1415 22.2418C24.4721 29.5185 27.8342 33.3808 29.5691 34.933L23.3894 37.4879L23.5391 38.1079C23.6784 38.701 27.1498 52.7753 43.1522 65.4089L43.5618 65.7331L58.0045 56.8816L57.0858 56.222ZM14.0003 55.6319C12.6874 55.8162 11.3633 55.9085 10.0376 55.9082C8.36626 55.9111 6.6981 55.7622 5.05368 55.4634C5.83325 49.7471 6.24419 43.9864 6.28395 38.2172C8.01665 38.5316 9.77422 38.6885 11.5352 38.686C12.783 38.686 14.0297 38.6089 15.268 38.4554C15.2189 44.2023 14.7955 49.94 14.0003 55.6319ZM15.2792 36.9301C14.0382 37.0982 12.7875 37.1845 11.5352 37.1884C9.77632 37.192 8.02107 37.0267 6.29368 36.695C6.3011 30.9255 5.94497 25.1614 5.2274 19.4368C7.05932 19.7901 8.92082 19.9673 10.7864 19.9662C11.9417 19.9618 13.0957 19.8914 14.2429 19.755C14.9453 25.414 15.2915 31.1116 15.2792 36.814C15.2792 36.8529 15.2792 36.8889 15.2792 36.9301ZM11.5996 6.48792C12.6929 10.3556 13.5106 14.2959 14.0467 18.2792C11.0329 18.617 7.98461 18.478 5.014 17.8673C4.48662 14.0263 3.70369 10.2247 2.67028 6.48792H11.5996ZM11.8085 66.3913H2.87994C3.70638 63.2815 4.35955 60.1283 4.83653 56.946C6.55306 57.2541 8.29371 57.408 10.0376 57.4058C11.2842 57.4064 12.5296 57.3299 13.7666 57.1767C13.287 60.2824 12.6333 63.3588 11.8085 66.3913ZM42.8909 16.5217C46.3181 16.9575 49.5215 18.9179 51.1059 20.0298C49.2796 20.688 45.6607 21.7521 42.2252 21.3103C38.8032 20.8752 34.8601 18.8565 32.7904 17.6764C33.4164 17.5072 34.1922 17.3132 35.0555 17.129C37.6197 16.5195 40.2635 16.3146 42.8909 16.5217ZM36.8444 7.9301C39.1327 5.30483 42.5757 3.72413 44.3922 3.02476C43.9197 4.91846 42.7756 8.5471 40.4813 11.1776C38.8734 12.9169 37.0103 14.4015 34.956 15.5805C34.0928 15.7363 33.2507 15.927 32.4295 16.1526C33.3041 13.7512 34.8114 10.2588 36.8444 7.9301ZM43.6704 63.9098C30.267 53.1594 26.0154 41.1817 25.167 38.376L38.0537 33.0438C41.2915 45.1368 52.0973 54.2646 55.3201 56.7678L43.6704 63.9098Z" fill="white"/>
</svg>
