<svg width="80" height="81" viewBox="0 0 80 81" fill="none" xmlns="http://www.w3.org/2000/svg">
<path d="M31.2365 21.3122L35.1422 20.2656C38.1799 31.66 31.4229 43.3635 20.0362 46.4299L18.9897 42.5242C28.2218 40.039 33.7002 30.55 31.2365 21.3122Z" fill="white"/>
<path d="M41.4239 18.5825L45.3296 17.536C49.8538 34.5498 39.7594 52.0168 22.759 56.5913L21.7125 52.6856C36.5558 48.6891 45.3701 33.4392 41.4239 18.5825Z" fill="white"/>
<path d="M51.6112 15.8527L55.5169 14.8062C61.5578 37.4516 48.1276 60.7135 25.4956 66.8046L24.4491 62.8989C44.9265 57.3889 57.0781 36.3416 51.6112 15.8527Z" fill="white"/>
<path d="M19.597 24.403C16.7821 25.1573 15.1116 28.0507 15.8658 30.8657C16.6201 33.6807 19.5135 35.3512 22.3285 34.5969C25.1434 33.8427 26.814 30.9492 26.0597 28.1343C25.3054 25.3193 22.412 23.6488 19.597 24.403Z" fill="white"/>
</svg>
