<svg width="53" height="58" viewBox="0 0 53 58" fill="none" xmlns="http://www.w3.org/2000/svg">
<path d="M10.9435 53.059H4.7265V57.7217H10.9435V53.059Z" fill="white"/>
<path d="M48.2456 53.059H42.0286V57.7217H48.2456V53.059Z" fill="white"/>
<path d="M49.7998 0.214417H3.17228C1.46261 0.214417 0.0637817 1.61324 0.0637817 3.32292V49.9504C0.0637817 51.6601 1.46261 53.0589 3.17228 53.0589H49.7998C51.5095 53.0589 52.9083 51.6601 52.9083 49.9504V3.32292C52.9083 1.61324 51.5095 0.214417 49.7998 0.214417ZM48.2455 48.3962H4.72653V4.87717H48.2455V48.3962Z" fill="white"/>
<path d="M7.83502 7.98566V45.2877H45.137V7.98566H7.83502ZM18.7148 34.4079C14.4406 34.4079 10.9435 30.9108 10.9435 26.6367C10.9435 22.3625 14.4406 18.8654 18.7148 18.8654C22.989 18.8654 26.486 22.3625 26.486 26.6367C26.486 30.9108 22.989 34.4079 18.7148 34.4079ZM42.0285 32.8537C42.0285 33.7085 41.3291 34.4079 40.4743 34.4079C39.6194 34.4079 38.92 33.7085 38.92 32.8537V20.4197C38.92 19.5648 39.6194 18.8654 40.4743 18.8654C41.3291 18.8654 42.0285 19.5648 42.0285 20.4197V32.8537Z" fill="white"/>
<path d="M24.9317 25.0824H23.0666C22.6004 23.7613 21.5901 22.7511 20.269 22.2848V20.4197H17.1605V22.2848C15.8394 22.7511 14.8291 23.839 14.3628 25.0824H12.4977V28.1909H14.3628C14.8291 29.512 15.8394 30.5223 17.1605 30.9886V32.8537H20.269V30.9886C21.5901 30.5223 22.6004 29.4343 23.0666 28.1909H24.9317V25.0824Z" fill="white"/>
</svg>
