<svg width="58" height="50" viewBox="0 0 58 50" fill="none" xmlns="http://www.w3.org/2000/svg">
<path d="M54.0212 32.5963V27.5555C54.0212 24.1477 48.5545 21.8758 41.9518 20.9528V16.906C41.9518 15.7701 41.3128 14.2081 38.4019 12.7172V7.67644C38.4019 3.06166 28.5334 0.576782 19.2329 0.576782C9.93231 0.576782 0.0637817 3.06166 0.0637817 7.67644V13.3562C0.0637817 15.0601 1.41272 16.48 3.61361 17.616V22.5857C3.61361 22.5857 3.61361 22.5857 3.61361 22.6567C0.702751 24.1477 0.0637817 25.7806 0.0637817 26.8455V32.5253C0.0637817 37.14 9.93231 39.6249 19.2329 39.6249V42.4648C19.2329 47.0796 29.1014 49.5644 38.4019 49.5644C47.7025 49.5644 57.571 47.0796 57.571 42.4648V36.7851C57.571 35.7201 56.9321 34.0872 54.0212 32.5963ZM56.1511 36.856C56.1511 39.5539 48.8384 42.5358 38.4019 42.5358C30.0953 42.5358 23.7766 40.6189 21.5048 38.489C25.8355 39.8379 30.3083 40.4769 34.7811 40.4059C43.4427 40.4059 52.6723 38.205 53.8082 34.2292C55.3701 35.0101 56.1511 35.9331 56.1511 36.856ZM44.0817 43.6007V47.8605C43.1587 47.9315 42.2358 48.0735 41.2418 48.0735V43.8137C42.2358 43.8137 43.1587 43.7427 44.0817 43.6007ZM45.5016 43.4587C46.4956 43.3167 47.4185 43.1747 48.3415 42.9618V47.1506C47.4895 47.3635 46.4956 47.5055 45.5016 47.6475V43.4587ZM49.7614 42.6068C50.7554 42.3938 51.6783 42.0388 52.6013 41.6838V45.8016C51.6783 46.2276 50.7554 46.5116 49.7614 46.7956V42.6068ZM27.0425 46.7956C26.0485 46.5116 25.1256 46.2276 24.2026 45.8016V41.6838C25.1256 42.0388 26.0485 42.3228 27.0425 42.6068V46.7956ZM28.4624 42.9618C29.3854 43.1747 30.3083 43.3167 31.3023 43.4587V47.7185C30.3083 47.5765 29.3144 47.3635 28.4624 47.2216V42.9618ZM32.7222 43.6007C33.6452 43.6717 34.6391 43.8137 35.5621 43.8137V48.0735C34.5681 48.0025 33.6452 47.9315 32.7222 47.8605V43.6007ZM15.683 27.6265V27.8395C14.6891 27.6975 13.6951 27.4845 12.8432 27.3425V23.1537C13.7661 23.3667 14.6891 23.5087 15.683 23.6507V27.6265ZM17.103 33.3062V30.4664C17.7419 31.0343 18.4519 31.5313 19.2329 31.8863V35.9331C17.8839 35.0101 17.103 34.1582 17.103 33.3062ZM52.6013 33.3062C52.6013 34.1582 51.8203 35.0811 50.4714 35.8621V31.8153C51.2523 31.4603 51.9623 30.9633 52.6013 30.3954V33.3062ZM49.0514 36.5721C48.1285 36.998 47.2055 37.282 46.2116 37.566V33.3772C47.2055 33.1642 48.1285 32.8092 49.0514 32.4543V36.5721ZM44.7916 37.921C43.9397 38.134 42.9457 38.276 41.9518 38.418V34.1582C42.9457 34.0162 43.8687 33.8742 44.7916 33.6612V37.921ZM40.5318 38.631C39.6089 38.702 38.6859 38.844 37.692 38.844V34.5842C38.6149 34.5132 39.6089 34.4422 40.5318 34.3712V38.631ZM36.272 38.915C35.7751 38.915 35.3491 38.915 34.8521 38.915C34.3551 38.915 33.9292 38.915 33.4322 38.915V34.6552C33.9292 34.6552 34.3551 34.6552 34.8521 34.6552C35.3491 34.6552 35.7751 34.6552 36.272 34.6552V38.915ZM32.0123 38.915C31.0183 38.844 30.0953 38.773 29.1724 38.702V34.4422C30.0953 34.5132 31.0893 34.6552 32.0123 34.6552V38.915ZM27.7525 38.489C26.7585 38.347 25.7646 38.134 24.9126 37.992V33.8032C25.8355 34.0162 26.7585 34.1582 27.7525 34.3002V38.489ZM23.4927 37.566C22.4987 37.282 21.5758 36.998 20.6528 36.5721V32.4543C21.5758 32.8092 22.4987 33.0932 23.4927 33.3772V37.566ZM52.6013 27.6265C52.6013 30.3244 45.2886 33.3062 34.8521 33.3062C24.4156 33.3062 17.103 30.3244 17.103 27.6265C17.103 24.9286 24.4156 21.9468 34.8521 21.9468C45.2886 21.9468 52.6013 24.9286 52.6013 27.6265ZM17.103 24.7866V23.7217C17.5289 23.7927 17.9549 23.7927 18.3809 23.8637C17.9549 24.1477 17.5289 24.4316 17.103 24.7866ZM39.3249 20.6688C39.7509 20.3848 40.1769 20.1008 40.6028 19.7459V20.8108C40.1059 20.7398 39.7509 20.7398 39.3249 20.6688ZM38.26 14.2791C39.7509 15.1311 40.5318 16.054 40.5318 16.906C40.5318 18.1129 38.9699 19.4619 36.343 20.4558C35.8461 20.4558 35.3491 20.4558 34.8521 20.4558C29.8824 20.4558 24.6996 21.1658 21.0078 22.5857C13.5531 22.3727 8.0154 20.5978 5.9565 18.6099C10.2873 19.9589 14.7601 20.5978 19.2329 20.5268C27.8945 20.5268 37.124 18.3259 38.26 14.2791ZM11.4232 22.7277V26.9165C10.4293 26.6325 9.50633 26.3485 8.58337 25.9226V21.8048C9.50633 22.1597 10.5003 22.5147 11.4232 22.7277ZM7.16344 21.1658V25.2126C5.81451 24.3606 5.03354 23.5087 5.03354 22.6567V19.8169C5.67251 20.3138 6.38248 20.8108 7.16344 21.1658ZM5.03354 16.693V12.5752C5.9565 12.9302 6.87946 13.2142 7.87341 13.4982V17.687C6.95045 17.403 5.9565 17.119 5.03354 16.693ZM9.29334 18.0419V13.8531C10.2163 14.0661 11.1393 14.2081 12.1332 14.3501V18.6099C11.1393 18.4679 10.2163 18.2549 9.29334 18.0419ZM13.5531 18.7519V14.4921C14.4761 14.5631 15.47 14.7051 16.393 14.7051V18.9649C15.399 18.9649 14.4761 18.8939 13.5531 18.7519ZM17.8129 19.0359V14.7761C18.3099 14.7761 18.7359 14.7761 19.2329 14.7761C19.7298 14.7761 20.1558 14.7761 20.6528 14.7761V19.0359C20.1558 19.0359 19.7298 19.0359 19.2329 19.0359C18.7359 19.0359 18.3099 19.1069 17.8129 19.0359ZM22.0727 19.0359V14.7761C22.9957 14.7051 23.9896 14.6341 24.9126 14.5631V18.8229C23.9896 18.8939 23.0667 18.9649 22.0727 19.0359ZM26.3325 18.6099V14.3501C27.3265 14.2081 28.2494 14.0661 29.1724 13.8531V18.0419C28.3204 18.2549 27.3265 18.4679 26.3325 18.6099ZM30.5923 17.687V13.4982C31.5863 13.2852 32.5092 12.9302 33.4322 12.5752V16.693C32.5092 17.119 31.5863 17.403 30.5923 17.687ZM34.8521 15.983V11.9362C35.6331 11.5813 36.343 11.0843 36.982 10.5163V13.3562C36.982 14.2791 36.272 15.1311 34.8521 15.983ZM3.61361 15.983C2.26468 15.1311 1.48371 14.2791 1.48371 13.4272V10.5873C2.12268 11.1553 2.83265 11.6523 3.61361 12.0072V15.983ZM1.48371 7.74744C1.48371 5.04957 8.79636 2.06771 19.2329 2.06771C29.6694 2.06771 36.982 5.04957 36.982 7.74744C36.982 10.4453 29.6694 13.4272 19.2329 13.4272C8.79636 13.4272 1.48371 10.3743 1.48371 7.74744ZM3.96859 24.0767C5.24653 26.7035 10.0743 28.4075 15.683 29.1884V32.3833C7.16344 31.8153 1.48371 29.1884 1.48371 26.8455C1.48371 25.9226 2.40667 24.9996 3.96859 24.0767ZM3.61361 35.1521C2.26468 34.3002 1.48371 33.4482 1.48371 32.5963V29.7564C2.12268 30.3244 2.83265 30.8213 3.61361 31.1763V35.1521ZM7.87341 36.856C6.87946 36.5721 5.9565 36.2881 5.03354 35.8621V31.7443C5.9565 32.0993 6.87946 32.3833 7.87341 32.6672V36.856ZM12.1332 37.779C11.1393 37.637 10.1453 37.424 9.29334 37.282V33.0932C10.2163 33.3062 11.1393 33.4482 12.1332 33.5902V37.779ZM13.5531 33.6612C14.2631 33.7322 14.9731 33.8032 15.754 33.8742C15.825 34.3712 16.109 34.8681 16.393 35.3651V38.205C15.399 38.134 14.4761 38.063 13.5531 37.992V33.6612ZM17.8129 36.6431C18.2389 36.927 18.7359 37.211 19.2329 37.495V38.205C18.7359 38.205 18.3099 38.205 17.8129 38.205V36.6431ZM20.6528 42.5358V39.6959C21.2918 40.2639 22.0017 40.7609 22.7827 41.1158V45.1627C21.4338 44.2397 20.6528 43.3877 20.6528 42.5358ZM36.982 43.8847C37.479 43.8847 37.905 43.8847 38.4019 43.8847C38.8989 43.8847 39.3249 43.8847 39.8219 43.8847V48.1445C39.3249 48.1445 38.8989 48.1445 38.4019 48.1445C37.905 48.1445 37.479 48.1445 36.982 48.1445V43.8847ZM54.0212 41.0448C54.8022 40.6899 55.5121 40.1929 56.1511 39.6249V42.4648C56.1511 43.3167 55.3701 44.2397 54.0212 45.0207V41.0448Z" fill="white"/>
</svg>
