<svg width="30" height="34" viewBox="0 0 30 34" fill="none" xmlns="http://www.w3.org/2000/svg">
<path d="M28.6312 16.9248C28.6642 14.1096 28.8782 11.5249 29.1581 9.23661C29.1087 9.23661 29.0593 9.23661 29.0099 9.23661C27.0343 8.64395 24.4826 7.67264 21.7498 6.04282C18.6877 4.19899 16.3664 2.51977 14.8518 0.889954C13.3702 2.48685 11.1806 4.19899 8.08562 6.04282C5.3034 7.68911 2.70227 8.62749 0.710266 9.17076C0.710266 9.18723 0.726729 9.22015 0.726729 9.23661C1.02306 11.5085 1.22061 14.0767 1.25354 16.8918C1.27 19.921 1.02306 22.9008 0.726729 25.3043C2.58703 25.683 5.25401 26.1933 8.06915 27.7573C11.3288 29.5682 13.5513 31.7249 14.9012 33.2559C16.2841 31.6919 18.5231 29.5518 21.7333 27.7573C24.3838 26.2592 27.3307 25.4196 29.1745 24.9916" fill="#1E3583"/>
<path d="M24.4332 11.4919C24.4168 15.1796 24.4497 18.8508 24.4332 22.5385" stroke="white" stroke-miterlimit="10"/>
<path d="M5.23758 11.3767C5.22111 15.0644 5.22111 18.7521 5.20465 22.4397L5.23758 11.3767Z" fill="white"/>
<path d="M5.23758 11.3767C5.22111 15.0644 5.22111 18.7521 5.20465 22.4397" stroke="white" stroke-miterlimit="10"/>
<path d="M24.4991 22.6044C21.2888 24.4482 18.0786 26.2921 14.8683 28.1359C11.6746 26.2591 8.4643 24.3824 5.27051 22.5056" stroke="white" stroke-miterlimit="10"/>
<path d="M24.4991 11.739C21.2888 13.6322 18.1609 15.3608 14.9506 17.2541" stroke="white" stroke-miterlimit="10"/>
<path d="M5.35284 11.4919C8.54663 13.4181 11.7569 15.3278 14.9507 17.2539" stroke="white" stroke-miterlimit="10"/>
<path d="M14.8683 28.1194C14.8848 24.4811 14.8848 20.8429 14.9013 17.1881" stroke="white" stroke-miterlimit="10"/>
<path d="M5.23755 11.3767C8.4478 9.53291 11.6581 7.68907 14.8683 5.86169C18.0621 7.73846 21.4534 10.0268 24.6637 11.9036" stroke="white" stroke-miterlimit="10"/>
<path d="M5.04003 15.8711C5.0565 15.509 5.04003 14.9986 4.97418 14.3895C4.89187 13.6651 4.79309 12.8914 4.29921 12.0518C4.05226 11.6402 3.85471 11.3768 3.77239 11.2945C3.50899 10.9982 3.27851 10.8171 2.96571 10.5866C2.70231 10.389 2.34013 10.1421 1.89563 9.89514C1.99441 9.94453 2.14257 10.0268 2.34013 10.1092C2.61999 10.2409 2.83401 10.3396 2.89986 10.3561C3.77239 10.7512 4.66139 11.1463 5.53392 11.5414C5.43514 12.1341 5.33636 12.7432 5.25405 13.4017C5.15527 14.2743 5.08942 15.0974 5.04003 15.8711Z" fill="white"/>
<path d="M5.18818 10.5701C5.86316 10.5207 6.37351 10.3396 6.63691 10.2244C6.6863 10.2079 6.71923 10.1915 6.73569 10.175C7.14726 9.97746 7.59176 9.73051 7.59176 9.73051C7.98687 9.50003 8.25027 9.33541 8.26673 9.36833C8.29966 9.40126 8.08564 9.63174 7.98687 9.71405C7.707 9.99392 7.06495 10.5372 5.41866 11.492C4.59552 11.1957 3.93701 10.8829 3.45958 10.6195C3.39373 10.5866 3.19618 10.5372 2.9657 10.4384C2.73522 10.3396 2.35657 10.1915 1.91208 9.92807C1.89562 9.92807 1.87915 9.89514 1.87915 9.89514C2.61998 10.2079 3.27849 10.3726 3.73945 10.4549C4.20041 10.5207 4.62845 10.603 5.18818 10.5701Z" fill="white"/>
<path d="M4.97418 18.2253C4.94125 18.2253 4.99064 18.8674 4.90833 19.8058C4.79309 21.2216 4.49676 21.8966 4.36506 22.1764C4.15104 22.6045 3.95349 22.8679 3.88763 22.9666C3.80532 23.0654 3.60776 23.3288 3.11388 23.7239C2.47183 24.2507 1.89563 24.5635 1.89563 24.5635C1.89563 24.5635 2.14257 24.4154 2.50475 24.2178C2.7517 24.0861 2.93279 23.9873 3.04803 23.9379C3.9041 23.4934 4.76016 23.049 5.61623 22.6045C5.51746 22.1929 5.36929 21.5508 5.23759 20.7771C5.02357 19.3613 5.00711 18.2253 4.97418 18.2253Z" fill="white"/>
<path d="M5.31989 23.6087C5.99486 23.6251 6.52167 23.7733 6.78508 23.8721C6.83447 23.8885 6.86739 23.905 6.88386 23.9214C7.29543 24.0861 7.75639 24.3166 7.75639 24.3166C8.16796 24.5141 8.43136 24.6787 8.46429 24.6293C8.49721 24.5964 8.26674 24.3824 8.16796 24.3001C7.87163 24.0367 7.19665 23.5263 5.51744 22.6538C4.71076 22.9995 4.06871 23.3452 3.60775 23.6251C3.5419 23.658 3.36081 23.7239 3.11386 23.8391C2.88338 23.9544 2.5212 24.119 2.09317 24.3989C2.0767 24.3989 2.06024 24.4318 2.06024 24.4318C2.78461 24.0696 3.42666 23.8885 3.88762 23.7733C4.33212 23.691 4.76015 23.6087 5.31989 23.6087Z" fill="white"/>
<path d="M24.7131 18.2253C24.6967 18.5875 24.7131 19.0979 24.779 19.707C24.8613 20.4314 24.9601 21.2051 25.454 22.0447C25.7009 22.4563 25.8984 22.7197 25.9808 22.802C26.2442 23.0983 26.4746 23.2794 26.7874 23.5099C27.0508 23.7075 27.413 23.9544 27.8575 24.2014C27.7587 24.152 27.6106 24.0697 27.413 23.9873C27.1332 23.8556 26.9191 23.7569 26.8533 23.7404C25.9808 23.3453 25.0918 22.9502 24.2192 22.5551C24.318 21.9624 24.4168 21.3533 24.4991 20.6948C24.5979 19.8387 24.6637 19.0156 24.7131 18.2253Z" fill="white"/>
<path d="M24.5649 23.5428C23.9393 23.5922 23.3631 23.8062 23.1162 23.8885C22.9515 23.9379 22.8363 23.9873 22.754 24.0202C21.865 24.3824 21.3217 24.7446 21.3052 24.7281C21.2888 24.6952 21.7497 24.3988 21.7497 24.3988C22.3259 24.0202 23.1491 23.444 24.3179 22.6208C25.1411 22.9172 25.7996 23.23 26.277 23.4934C26.3429 23.5263 26.5404 23.5757 26.7709 23.6745C27.0014 23.7732 27.38 23.9214 27.8245 24.1848C27.841 24.1848 27.8575 24.2177 27.8575 24.2177C27.1166 23.9049 26.4581 23.7403 25.9972 23.658C25.5691 23.5757 25.1246 23.4934 24.5649 23.5428Z" fill="white"/>
</svg>
