<svg width="34" height="39" viewBox="0 0 34 39" fill="none" xmlns="http://www.w3.org/2000/svg">
<path d="M33.0733 19.3089C33.1117 16.0417 33.3614 13.042 33.6879 10.3862C33.6303 10.3862 33.5726 10.3862 33.515 10.3862C31.2103 9.6984 28.2333 8.57112 25.0451 6.67958C21.4727 4.53967 18.7646 2.59081 16.9976 0.69928C15.2691 2.5526 12.7146 4.53967 9.10386 6.67958C5.858 8.59022 2.82341 9.67929 0.499451 10.3098C0.499451 10.3289 0.518658 10.3671 0.518658 10.3862C0.864371 13.0229 1.09485 16.0035 1.13326 19.2707C1.15246 22.7863 0.864371 26.2445 0.518658 29.0341C2.68897 29.4735 5.80038 30.0658 9.08465 31.8809C12.8875 33.9826 15.4803 36.4856 17.0553 38.2625C18.6686 36.4474 21.2806 33.9635 25.0259 31.8809C28.1181 30.1422 31.556 29.1678 33.7071 28.6711" fill="white"/>
<path d="M28.1757 13.0038C28.1565 17.2836 28.1949 21.5444 28.1757 25.8242" stroke="#1E3583" stroke-width="1.5" stroke-miterlimit="10"/>
<path d="M5.78121 12.8701C5.762 17.1499 5.762 21.4297 5.7428 25.7096L5.78121 12.8701Z" fill="white"/>
<path d="M5.78121 12.8701C5.762 17.1499 5.762 21.4297 5.7428 25.7096" stroke="#1E3583" stroke-width="1.5" stroke-miterlimit="10"/>
<path d="M28.2525 25.9006C24.5073 28.0405 20.7621 30.1805 17.0168 32.3204C13.2908 30.1422 9.5456 27.9641 5.81958 25.786" stroke="#1E3583" stroke-width="1.5" stroke-miterlimit="10"/>
<path d="M28.2525 13.2904C24.5073 15.4876 20.8581 17.4938 17.1129 19.6911" stroke="#1E3583" stroke-width="1.5" stroke-miterlimit="10"/>
<path d="M5.91559 13.0038C9.6416 15.2393 13.3868 17.4556 17.1128 19.6911" stroke="#1E3583" stroke-width="1.5" stroke-miterlimit="10"/>
<path d="M17.0168 32.3204C17.0361 28.0979 17.0361 23.8753 17.0553 19.6337" stroke="#1E3583" stroke-width="1.5" stroke-miterlimit="10"/>
<path d="M5.78119 12.8701C9.52641 10.7301 13.2716 8.59022 17.0169 6.46941C20.7429 8.64754 24.6994 11.3033 28.4446 13.4815" stroke="#1E3583" stroke-width="1.5" stroke-miterlimit="10"/>
<path d="M5.55072 18.0861C5.56993 17.6658 5.55072 17.0735 5.4739 16.3665C5.37787 15.5259 5.26263 14.6279 4.68644 13.6534C4.39835 13.1758 4.16787 12.8701 4.07184 12.7745C3.76454 12.4306 3.49565 12.2204 3.13073 11.953C2.82343 11.7237 2.40089 11.4371 1.88232 11.1505C1.99756 11.2078 2.17042 11.3033 2.40089 11.3989C2.7274 11.5517 2.97708 11.6664 3.05391 11.6855C4.07184 12.144 5.10898 12.6026 6.12691 13.0611C6.01167 13.749 5.89644 14.4559 5.80041 15.2202C5.68517 16.2328 5.58914 17.1881 5.55072 18.0861Z" fill="#1E3583"/>
<path d="M5.72356 11.9338C6.51102 11.8765 7.10641 11.6664 7.41371 11.5326C7.47133 11.5135 7.50974 11.4944 7.52895 11.4753C8.00911 11.246 8.52768 10.9594 8.52768 10.9594C8.98863 10.6919 9.29593 10.5009 9.31513 10.5391C9.35354 10.5773 9.10386 10.8448 8.98863 10.9403C8.66212 11.2651 7.91307 11.8956 5.99245 13.0038C5.03213 12.6599 4.26388 12.2969 3.7069 11.9912C3.63008 11.953 3.3996 11.8956 3.13071 11.781C2.86182 11.6664 2.42008 11.4944 1.90151 11.1887C1.8823 11.1887 1.8631 11.1505 1.8631 11.1505C2.72738 11.5135 3.49563 11.7046 4.03341 11.8001C4.55198 11.8956 5.05134 11.9721 5.72356 11.9338Z" fill="#1E3583"/>
<path d="M5.45467 20.8374C5.41626 20.8374 5.47388 21.5826 5.37785 22.6716C5.2434 24.3148 4.89769 25.0982 4.74404 25.423C4.49436 25.9197 4.26388 26.2254 4.18706 26.3401C4.09103 26.4547 3.86055 26.7604 3.28436 27.219C2.53532 27.8304 1.8631 28.1934 1.8631 28.1934C1.8631 28.1934 2.15119 28.0214 2.57373 27.7922C2.86182 27.6393 3.07309 27.5247 3.20754 27.4674C4.20626 26.9515 5.20499 26.4356 6.20372 25.9197C6.08848 25.4421 5.91562 24.6969 5.76197 23.7989C5.5315 22.1367 5.51229 20.8183 5.45467 20.8374Z" fill="#1E3583"/>
<path d="M5.87718 27.0852C6.66464 27.1043 7.27924 27.2763 7.58654 27.3909C7.64416 27.41 7.68257 27.4291 7.70178 27.4482C8.18194 27.6393 8.71971 27.9068 8.71971 27.9068C9.19987 28.1361 9.50717 28.3271 9.54558 28.2698C9.58399 28.2316 9.31511 27.9832 9.19987 27.8877C8.85416 27.582 8.0667 26.9897 6.10766 25.9771C5.16655 26.3783 4.41751 26.7795 3.87973 27.1043C3.80291 27.1425 3.59164 27.219 3.30354 27.3527C3.03465 27.4865 2.61212 27.6775 2.11275 28.0023C2.09355 28.0023 2.07434 28.0405 2.07434 28.0405C2.91942 27.6202 3.66846 27.41 4.20624 27.2763C4.7056 27.1808 5.20496 27.0661 5.87718 27.0852Z" fill="#1E3583"/>
<path d="M28.483 20.8183C28.4638 21.2387 28.483 21.831 28.5598 22.5379C28.6558 23.3786 28.7711 24.2766 29.3473 25.251C29.6354 25.7287 29.8658 26.0344 29.9619 26.1299C30.2692 26.4738 30.5381 26.684 30.903 26.9515C31.2103 27.1808 31.6328 27.4674 32.1514 27.754C32.0361 27.6966 31.8633 27.6011 31.6328 27.5056C31.3063 27.3527 31.0566 27.2381 30.9798 27.219C29.9619 26.7604 28.9247 26.3019 27.9068 25.8433C28.022 25.1555 28.1373 24.4485 28.2333 23.6843C28.3678 22.6908 28.4446 21.7354 28.483 20.8183Z" fill="#1E3583"/>
<path d="M28.3101 26.9897C27.5803 27.047 26.9081 27.2954 26.62 27.3909C26.4279 27.4483 26.2935 27.5056 26.1974 27.5438C25.1603 27.9641 24.5265 28.3845 24.5073 28.3654C24.4881 28.3271 25.0258 27.9832 25.0258 27.9832C25.6981 27.5438 26.6584 26.8751 28.022 25.9197C28.9823 26.2637 29.7506 26.6267 30.3076 26.9324C30.3844 26.9706 30.6149 27.0279 30.8838 27.1426C31.1527 27.2572 31.5944 27.4291 32.113 27.7348C32.1322 27.7348 32.1514 27.7731 32.1514 27.7731C31.2871 27.41 30.5188 27.219 29.9811 27.1234C29.4817 27.0279 28.9823 26.9515 28.3101 26.9897Z" fill="#1E3583"/>
</svg>
