<svg width="25" height="21" viewBox="0 0 25 21" fill="none" xmlns="http://www.w3.org/2000/svg">
<path d="M1.53408 9.00171L16.4248 2.86651C17.8947 2.22746 22.8797 0.182457 22.8797 0.182457C22.8797 0.182457 25.1805 -0.712164 24.9886 1.46054C24.9247 2.35516 24.4137 5.4868 23.9022 8.87364L22.3046 18.907C22.3046 18.907 22.1767 20.3769 21.0884 20.6325C20.0001 20.8881 18.2125 19.7379 17.8932 19.4821C17.6376 19.2905 13.1 16.4146 11.4383 15.0087C10.9909 14.6254 10.4797 13.8583 11.5022 12.9637C13.803 10.8547 16.5512 8.23442 18.2125 6.57287C18.9795 5.80595 19.7464 4.01652 16.551 6.1896L7.53993 12.2609C7.53993 12.2609 6.51724 12.8999 4.60011 12.3248C2.68299 11.7497 0.446159 10.9828 0.446159 10.9828C0.446159 10.9828 -1.08769 10.0242 1.5326 9.00189L1.53408 9.00171Z" fill="white"/>
</svg>
