<?xml version="1.0" encoding="utf-8"?>
<!-- Generator: Adobe Illustrator 19.0.0, SVG Export Plug-In . SVG Version: 6.00 Build 0)  -->
<svg version="1.1" xmlns="http://www.w3.org/2000/svg" xmlns:xlink="http://www.w3.org/1999/xlink" x="0px" y="0px"
	 viewBox="0 0 310 310" style="enable-background:new 0 0 310 310;" xml:space="preserve">
<style type="text/css">
	.st0{fill:#41E296;}
	.st1{fill:#00C4EE;}
</style>
<g id="Layer_3">
</g>
<g id="Layer_2">
</g>
<g id="Layer_1">
	<g>
		<g>
			<path class="st0" d="M51.6,227.1c-3.1,1-6.3,1.4-9.6,1.4c-12,0-18-6-18-17.9c0-11.3,6-16.9,18-16.9c3.3,0,6.5,0.5,9.6,1.4v2.2
				c-3.1-1-6.2-1.4-9.1-1.4c-10.7,0-16,4.9-16,14.7c0,10.5,5.3,15.7,16,15.7c3,0,6-0.5,9.1-1.4V227.1z"/>
			<path class="st0" d="M62,194v34.3h-2.5V194H62z"/>
			<path class="st0" d="M73.4,194v2.9h-3V194H73.4z M73.2,203.1v25.2h-2.5v-25.2H73.2z"/>
			<path class="st0" d="M81.4,228.3v-25.2h1.8l0.3,3.2c2.6-2.1,5.4-3.2,8.4-3.2c4,0,6.6,1.2,7.7,3.5c2.9-2.3,5.8-3.5,8.8-3.5
				c5.6,0,8.5,2.8,8.5,8.4v16.8h-2.5v-16.8c0-4.1-2-6.1-6-6.1c-3.2,0-5.8,1.1-7.9,3.3v19.7H98v-17.2c0-3.8-2.1-5.7-6.2-5.7
				c-3,0-5.6,1.1-7.9,3.3v19.7H81.4z"/>
			<path class="st0" d="M123.1,221.2c0-5,3.3-7.5,10-7.5c2.4,0,4.9,0.2,7.6,0.5v-3.1c0-3.9-2.4-5.8-7.3-5.8c-2.6,0-5.3,0.4-8,1.2
				v-2.2c2.7-0.8,5.4-1.2,8-1.2c6.5,0,9.8,2.6,9.8,7.8v17.4h-1.5l-0.6-2.5c-3.2,1.7-6.2,2.5-9.2,2.5
				C126,228.3,123.1,225.9,123.1,221.2z M133.1,215.8c-5,0-7.5,1.8-7.5,5.3c0,3.4,2.1,5,6.3,5c3.1,0,6-0.8,8.8-2.4v-7.4
				C138,216,135.5,215.8,133.1,215.8z"/>
			<path class="st0" d="M150.8,199h1.8l0.5,4.1h7.6v2.2h-7.4v15.9c0,3.3,1.2,5,3.7,5h3.7v2.2H157c-4.1,0-6.2-2.3-6.2-6.8V199z"/>
			<path class="st0" d="M176.2,203.1c6.9,0,10.4,3.8,10.4,11.4c0,0.5,0,1.1,0,1.7h-19.2c0,6.6,3.5,9.9,10.5,9.9
				c2.9,0,5.4-0.4,7.7-1.2v2.2c-2.2,0.8-4.8,1.2-7.7,1.2c-8.7,0-13-4.3-13-12.9C164.8,207.2,168.6,203.1,176.2,203.1z M167.3,214
				h16.8c-0.1-5.8-2.7-8.8-7.9-8.8C170.5,205.2,167.6,208.2,167.3,214z"/>
			<path class="st1" d="M195.6,194v34.3H193V194H195.6z M219.2,194l-16.4,16.2l17,18.1H216l-15.7-17.2v-1.5l15.4-15.6H219.2z"/>
			<path class="st1" d="M245.1,203.1v25.2h-1.9l-0.3-3.2c-2.9,2.1-6.1,3.2-9.7,3.2c-6,0-9-3.1-9-9.4v-15.8h2.5V219
				c0,4.7,2.2,7,6.5,7c3.2,0,6.3-1.1,9.2-3.2v-19.7H245.1z"/>
			<path class="st1" d="M273.6,203.1v25.2h-1.9l-0.3-3.2c-2.9,2.1-6.1,3.2-9.7,3.2c-6,0-9-3.1-9-9.4v-15.8h2.5V219
				c0,4.7,2.2,7,6.5,7c3.2,0,6.3-1.1,9.2-3.2v-19.7H273.6z"/>
			<path class="st1" d="M284.3,194v34.3h-2.5V194H284.3z"/>
		</g>
		<g>
			<path id="Globe_5_" class="st1" d="M161.8,104.1c0,10.7-7,19.7-16.6,22.9c0.1-0.1-2.4,1.1-7.5,0c-5.1-1-0.8-2.6-3.6-2.4
				c-2.3,0.2-5.4,0.7-4.6,2.2c-9.3-3.3-16-12.3-16-22.7c0-13.4,10.8-24.1,24.1-24.1c3.3,0,6.5,0.7,9.3,1.9c-1.2,1-3.1,2.2-5.9,2.3
				c-4.8,0.3-1.8,2.4-5,1.9c-3.3-0.5-3-1.4-5.3-0.8c-2.2,0.5-5.2-0.2-5.7,1.6c-0.6,1.8-0.7,2.8-2.7,4.5c-2,1.7-6.2,5.6-5.3,8.2
				c0.9,2.5,1.4,3.3,3.4,3c2-0.1,2.4,1.7,2.8,3c0.3,1.2,0,4.1,1.3,5.6c1.3,1.6,0.4,3.2,1.7,3.1c1.3-0.1,1.9-1.3,2.7-3.1
				c0.7-1.8,0.4-2,1-2.9c1.2-1.9-0.9-1.8,0.2-3.3c1.1-1.4,2.1-1.8,2.7-3c0.7-1.3,2.8-2.2,2.4-4l1.2,0.1c0,0,1,1.3,1.9,1.1
				c0,0,0,3.7,2,4c0,0,1.3,0.2,0.7-2.1c0,0,1.6-2.7,2.6-1.7c1,1,1.3,3,1.9,4.8c0.6,1.7,2.5-0.7,3.3-3c0.8-2.2,2.7-3.1,3-5.6
				c0.3-2.4-1-3.9,0-6.5c0.4-1.2,0.4-2.7,0.1-4.2C158.2,89.4,161.8,96.6,161.8,104.1z M157.7,109.8c1-1.3,1.3-2.2-0.9-3.3
				c-1.4-0.7-1.9-1.4-2.9-0.7c0,0,1.1,2.6-1.3,3.8c-2.4,1.3-4.3,0.6-4.5,2.7c-0.2,2.2-1.5,3.7,0,3.7c1.4,0,1.5-0.4,2.7,0
				c1.1,0.3-1,2.7,1,2.5s5.7-0.3,5-3.8C156,111.3,156.6,111.1,157.7,109.8z"/>
			<path class="st0" d="M155,160.3l-1.4,0l0.1-1c0-0.5,0-1.1,0-1.6c0-1.5-0.1-3.1-0.4-4.6c-0.2-1-0.4-2.1-0.7-3.1l-0.1-0.4l0.2-0.3
				c1.6-2.5,3.5-4.9,5.8-6.8c0.3-0.3,0.6-0.5,0.9-0.8c-0.5,0.3-0.9,0.6-1.4,0.9c-1.8,1.3-3.6,2.7-5.2,4.3l-0.9,0.9l-0.5-1.2
				c-1-2.2-2.2-4.2-3.8-6.1c-0.4-0.5-0.8-0.9-1.2-1.3l-0.4-0.4l0.2-0.6c0.6-1.3,1.2-2.6,1.8-3.9c3-5.8,8.4-11.1,16.2-15.5
				c4.7-2.7,9.8-4.9,14.7-7.1c2.4-1,4.8-2.1,7.2-3.2c5.9-2.8,12.7-6.9,13.4-14.6l0.3-3.1l1.5,2.8c3,5.7,4,13.7,2.7,21.4
				c-1.9,13.4-7.9,25.3-16.7,33.4C178.8,156.1,167.4,160.3,155,160.3L155,160.3z M154.6,150c0.3,1,0.5,1.9,0.6,2.9
				c0.3,1.9,0.4,3.8,0.4,5.7c11.7-0.1,22.5-4.2,30.4-11.5c8.6-7.8,14.3-19.3,16.2-32.4c1.1-6.2,0.6-12.6-1.4-17.6
				c-1.9,6.7-8.3,10.5-13.9,13.2c-2.4,1.1-4.8,2.2-7.2,3.2c-4.8,2.1-9.9,4.3-14.5,7c-7.4,4.2-12.7,9.3-15.5,14.8
				c-0.6,1.1-1.1,2.2-1.5,3.2c1.8,1.9,3.3,4,4.4,6.3c1.4-1.3,2.9-2.5,4.5-3.6c3.6-2.5,7.4-4.6,11.1-6.6c1.8-1,3.7-2,5.5-3l1,1.5
				c-1.9,1.4-3.8,2.7-5.7,4c-3.1,2.1-6.3,4.3-9.1,6.8C157.8,145.6,156.1,147.7,154.6,150L154.6,150z"/>
			<path class="st0" d="M153.6,177.8c-4.4-9.4-16.2-9.1-34.5-18c-18.3-8.9-12.9-44.4-13.1-43.2c-0.3,3,12.6,10.6,29,16.4
				c5.6,2,9.5,4.8,12.2,8c1.7,2,3.1,4.2,4,6.7c0.7,1.9,1.2,3.8,1.5,5.5c0.3,1.6,0.3,3.2,0.4,4.5c0,3.4-0.5,5.7-0.5,5.7
				c-1.5-2.1-3.2-4-5-5.9c-6-6.2-11.7-9-14.6-10.1c-0.6-0.2-1.2-0.4-1.8-0.6c-0.2,0-0.3,0-0.2,0c0.7,0.4,1.4,0.8,2,1.3
				c4.7,3,8.3,6.1,11.1,9.2c1,1.1,1.9,2.2,2.8,3.3C154.4,170.4,153.9,178.4,153.6,177.8L153.6,177.8z"/>
		</g>
	</g>
</g>
<g id="Layer_4">
</g>
</svg>
