<?xml version="1.0" encoding="utf-8"?>
<!-- Generator: Adobe Illustrator 19.0.0, SVG Export Plug-In . SVG Version: 6.00 Build 0)  -->
<svg version="1.1" id="Шар_1" xmlns="http://www.w3.org/2000/svg" xmlns:xlink="http://www.w3.org/1999/xlink" x="0px" y="0px"
	 viewBox="0 0 425.2 425.2" style="enable-background:new 0 0 425.2 425.2;" xml:space="preserve">
<style type="text/css">
	.st0{fill:#1E3583;}
	.st1{fill:none;stroke:#FFFFFF;stroke-width:8.2691;stroke-miterlimit:10;}
	.st2{fill:#FFFFFF;stroke:#FFFFFF;stroke-width:8.2691;stroke-miterlimit:10;}
	.st3{fill:#FFFFFF;}
</style>
<g>
	<path class="st0" d="M335.4,211.2c0.3-25.3,2.2-48.4,4.8-68.9c-0.5,0-0.9,0-1.4-0.1c-17.8-5.3-40.6-14-65.1-28.6
		c-27.5-16.5-48.2-31.6-61.9-46.2c-13.3,14.4-32.9,29.7-60.7,46.2c-25,14.8-48.3,23.2-66.1,28.1c0,0.2,0.1,0.4,0.1,0.6
		c2.6,20.4,4.5,43.4,4.7,68.7c0.2,27.1-2.1,53.9-4.8,75.4c16.8,3.4,40.6,8,65.8,22c29.2,16.2,49.2,35.6,61.3,49.4
		c12.5-14,32.5-33.2,61.3-49.4c23.8-13.4,50.2-20.9,66.7-24.8"/>
	<path class="st1" d="M297.6,162.4c-0.1,33.1,0.1,66,0,99.1"/>
	<path class="st2" d="M125.5,161.4c-0.1,33.1-0.2,66.1-0.3,99.2"/>
	<path class="st1" d="M298.3,262.1c-28.8,16.5-57.6,33-86.4,49.6c-28.7-16.8-57.4-33.7-86.1-50.5"/>
	<path class="st1" d="M298.3,164.6c-28.8,17-56.9,32.5-85.7,49.5"/>
	<path class="st1" d="M126.5,162.4c28.7,17.2,57.4,34.5,86.1,51.7"/>
	<path class="st1" d="M211.9,311.7c0.1-32.7,0.2-65.3,0.3-98"/>
	<path class="st1" d="M125.5,161.4c28.8-16.5,57.6-33,86.4-49.5c28.7,16.8,59.1,37.4,87.8,54.2"/>
	<path class="st3" d="M123.7,201.8c0.1-3.2,0.1-7.8-0.6-13.3c-0.8-6.5-1.7-13.5-6-20.9c-2.2-3.7-4-6.1-4.7-6.8
		c-2.3-2.7-4.5-4.3-7.3-6.4c-2.3-1.8-5.6-4-9.6-6.2c0.8,0.4,2.2,1.1,4,1.9c2.5,1.2,4.5,2,5,2.3c7.9,3.6,15.8,7.1,23.7,10.7
		c-0.9,5.3-1.8,10.8-2.5,16.6C124.7,187.4,124.1,194.8,123.7,201.8z"/>
	<path class="st3" d="M125.1,154.1c6-0.4,10.6-2.1,13-3.1c0.4-0.2,0.7-0.3,0.9-0.4c3.7-1.7,7.7-4,7.7-4c3.6-2,5.9-3.5,6.1-3.2
		c0.3,0.4-1.7,2.3-2.4,3.1c-2.5,2.5-8.3,7.4-23,16c-7.4-2.7-13.3-5.5-17.6-7.8c-0.6-0.3-2.3-0.8-4.5-1.7c-2.1-0.9-5.4-2.2-9.4-4.6
		c-0.1-0.1-0.3-0.3-0.3-0.3c6.7,2.8,12.5,4.2,16.6,5C116.1,153.8,119.9,154.5,125.1,154.1z"/>
	<path class="st3" d="M123,222.9c-0.3,0,0.2,5.7-0.6,14.1c-1.1,12.6-3.7,18.8-4.9,21.2c-2,3.8-3.7,6.3-4.3,7.1
		c-0.7,0.8-2.6,3.2-6.9,6.8c-5.8,4.8-11,7.5-10.9,7.6c0,0.1,2.3-1.3,5.5-3.1c2.2-1.2,3.9-2,4.9-2.5c7.7-4,15.4-7.9,23.1-11.9
		c-1-3.7-2.3-9.4-3.4-16.5C123.5,233.1,123.4,222.9,123,222.9z"/>
	<path class="st3" d="M126.2,271.2c6,0.1,10.7,1.5,13.1,2.4c0.4,0.2,0.7,0.3,0.9,0.4c3.8,1.5,7.9,3.6,7.9,3.6c3.7,1.8,6,3.2,6.3,2.9
		c0.3-0.4-1.8-2.2-2.6-2.9c-2.6-2.3-8.7-7-23.8-14.7c-7.2,3.1-13,6.2-17.2,8.7c-0.6,0.3-2.2,0.9-4.4,1.9c-2,1-5.3,2.5-9.1,5.1
		c-0.1,0.1-0.3,0.3-0.3,0.3c6.5-3.2,12.2-4.9,16.4-5.9C117.3,272,121.1,271.1,126.2,271.2z"/>
	<path class="st3" d="M300.1,222.9c-0.1,3.2-0.1,7.8,0.6,13.3c0.8,6.5,1.7,13.5,6,20.9c2.2,3.7,4,6.1,4.7,6.8
		c2.3,2.7,4.5,4.3,7.3,6.4c2.3,1.8,5.6,4,9.6,6.2c-0.8-0.4-2.2-1.1-4-1.9c-2.5-1.2-4.5-2-5-2.3c-7.9-3.6-15.8-7.1-23.7-10.7
		c0.9-5.3,1.8-10.8,2.5-16.6C299.1,237.3,299.8,229.9,300.1,222.9z"/>
	<path class="st3" d="M298.8,270.5c-5.6,0.4-10.8,2.3-13,3.1c-1.4,0.5-2.4,0.9-3.2,1.2c-8,3.2-12.9,6.6-13,6.3c-0.1-0.2,4-3,4-3
		c5.1-3.4,12.5-8.5,23-16c7.4,2.7,13.3,5.5,17.6,7.8c0.6,0.3,2.3,0.8,4.5,1.7c2.1,0.9,5.4,2.2,9.4,4.6c0.1,0.1,0.3,0.3,0.3,0.3
		c-6.7-2.8-12.5-4.2-16.6-5C307.8,270.8,303.9,270.1,298.8,270.5z"/>
</g>
</svg>
