<?xml version="1.0" encoding="utf-8"?>
<!-- Generator: Adobe Illustrator 19.0.0, SVG Export Plug-In . SVG Version: 6.00 Build 0)  -->
<svg version="1.1" id="Шар_1" xmlns="http://www.w3.org/2000/svg" xmlns:xlink="http://www.w3.org/1999/xlink" x="0px" y="0px"
	 viewBox="0 0 425.2 425.2" style="enable-background:new 0 0 425.2 425.2;" xml:space="preserve">
<style type="text/css">
	.st0{fill:#1E3583;}
	.st1{fill:none;stroke:#FFFFFF;stroke-width:5.6;stroke-miterlimit:10;}
	.st2{fill:#FFFFFF;stroke:#FFFFFF;stroke-width:5.6;stroke-miterlimit:10;}
	.st3{fill:#FFFFFF;}
</style>
<g>
	<path class="st0" d="M295.4,151.4c0.2-17.1,1.5-32.8,3.2-46.7c-0.3,0-0.6,0-0.9,0c-12-3.6-27.5-9.5-44.1-19.4
		c-18.6-11.2-32.7-21.4-41.9-31.3c-9,9.7-22.3,20.1-41.1,31.3c-16.9,10-32.7,15.7-44.8,19c0,0.1,0.1,0.3,0.1,0.4
		c1.8,13.8,3,29.4,3.2,46.5c0.1,18.4-1.4,36.5-3.2,51.1c11.3,2.3,27.5,5.4,44.6,14.9c19.8,11,33.3,24.1,41.5,33.4
		c8.4-9.5,22-22.5,41.5-33.4c16.1-9.1,34-14.2,45.2-16.8"/>
	<path class="st1" d="M269.9,118.4c-0.1,22.4,0.1,44.7,0,67.1"/>
	<path class="st2" d="M153.3,117.7c-0.1,22.4-0.1,44.8-0.2,67.2"/>
	<path class="st1" d="M270.3,185.9c-19.5,11.2-39,22.4-58.5,33.6c-19.4-11.4-38.9-22.8-58.3-34.2"/>
	<path class="st1" d="M270.3,119.9c-19.5,11.5-38.5,22-58,33.5"/>
	<path class="st1" d="M154,118.4c19.4,11.7,38.9,23.3,58.3,35"/>
	<path class="st1" d="M211.8,219.4c0.1-22.1,0.1-44.2,0.2-66.4"/>
	<path class="st1" d="M153.3,117.7c19.5-11.2,39-22.4,58.5-33.5c19.4,11.4,40,25.3,59.5,36.7"/>
	<path class="st3" d="M152.1,145c0.1-2.2,0-5.3-0.4-9c-0.5-4.4-1.1-9.1-4.1-14.2c-1.5-2.5-2.7-4.1-3.2-4.6c-1.6-1.8-3-2.9-4.9-4.3
		c-1.6-1.2-3.8-2.7-6.5-4.2c0.6,0.3,1.5,0.8,2.7,1.3c1.7,0.8,3,1.4,3.4,1.5c5.3,2.4,10.7,4.8,16,7.2c-0.6,3.6-1.2,7.3-1.7,11.3
		C152.8,135.3,152.4,140.3,152.1,145z"/>
	<path class="st3" d="M153,112.8c4.1-0.3,7.2-1.4,8.8-2.1c0.3-0.1,0.5-0.2,0.6-0.3c2.5-1.2,5.2-2.7,5.2-2.7c2.4-1.4,4-2.4,4.1-2.2
		c0.2,0.2-1.1,1.6-1.7,2.1c-1.7,1.7-5.6,5-15.6,10.8c-5-1.8-9-3.7-11.9-5.3c-0.4-0.2-1.6-0.5-3-1.1c-1.4-0.6-3.7-1.5-6.4-3.1
		c-0.1,0-0.2-0.2-0.2-0.2c4.5,1.9,8.5,2.9,11.3,3.4C147,112.5,149.6,113,153,112.8z"/>
	<path class="st3" d="M151.7,159.3c-0.2,0,0.1,3.9-0.4,9.6c-0.7,8.6-2.5,12.7-3.3,14.4c-1.3,2.6-2.5,4.2-2.9,4.8
		c-0.5,0.6-1.7,2.2-4.7,4.6c-3.9,3.2-7.4,5.1-7.4,5.1c0,0,1.5-0.9,3.7-2.1c1.5-0.8,2.6-1.4,3.3-1.7c5.2-2.7,10.4-5.4,15.6-8.1
		c-0.6-2.5-1.5-6.4-2.3-11.1C152,166.2,151.9,159.3,151.7,159.3z"/>
	<path class="st3" d="M153.8,192c4.1,0.1,7.3,1,8.9,1.6c0.3,0.1,0.5,0.2,0.6,0.3c2.5,1,5.3,2.4,5.3,2.4c2.5,1.2,4.1,2.2,4.3,1.9
		c0.2-0.2-1.2-1.5-1.8-2c-1.8-1.6-5.9-4.7-16.1-10c-4.9,2.1-8.8,4.2-11.6,5.9c-0.4,0.2-1.5,0.6-3,1.3c-1.4,0.7-3.6,1.7-6.2,3.4
		c-0.1,0-0.2,0.2-0.2,0.2c4.4-2.2,8.3-3.3,11.1-4C147.8,192.5,150.4,192,153.8,192z"/>
	<path class="st3" d="M271.6,159.3c-0.1,2.2,0,5.3,0.4,9c0.5,4.4,1.1,9.1,4.1,14.2c1.5,2.5,2.7,4.1,3.2,4.6c1.6,1.8,3,2.9,4.9,4.3
		c1.6,1.2,3.8,2.7,6.5,4.2c-0.6-0.3-1.5-0.8-2.7-1.3c-1.7-0.8-3-1.4-3.4-1.5c-5.3-2.4-10.7-4.8-16-7.2c0.6-3.6,1.2-7.3,1.7-11.3
		C270.9,169.1,271.3,164.1,271.6,159.3z"/>
	<path class="st3" d="M270.7,191.6c-3.8,0.3-7.3,1.6-8.8,2.1c-1,0.3-1.7,0.6-2.2,0.8c-5.4,2.2-8.7,4.4-8.8,4.3c-0.1-0.2,2.7-2,2.7-2
		c3.5-2.3,8.5-5.8,15.6-10.8c5,1.8,9,3.7,11.9,5.3c0.4,0.2,1.6,0.5,3,1.1c1.4,0.6,3.7,1.5,6.4,3.1c0.1,0,0.2,0.2,0.2,0.2
		c-4.5-1.9-8.5-2.9-11.3-3.4C276.8,191.8,274.1,191.3,270.7,191.6z"/>
</g>
<g>
	<path id="XMLID_2_" class="st0" d="M24.5,300.6v50.3h-3.7v-50.3H24.5z M59,300.6L35,324.4l24.8,26.5h-5.5l-23-25.2v-2.2l22.6-22.9
		H59z"/>
	<path id="XMLID_5_" class="st0" d="M96.9,314v36.9h-2.7l-0.4-4.7c-4.2,3.1-9,4.7-14.2,4.7c-8.7,0-13.1-4.6-13.1-13.7V314h3.7v23.3
		c0,6.9,3.2,10.3,9.6,10.3c4.7,0,9.2-1.6,13.5-4.7V314H96.9z"/>
	<path id="XMLID_7_" class="st0" d="M138.5,314v36.9h-2.7l-0.4-4.7c-4.2,3.1-9,4.7-14.2,4.7c-8.7,0-13.1-4.6-13.1-13.7V314h3.7v23.3
		c0,6.9,3.2,10.3,9.6,10.3c4.7,0,9.2-1.6,13.5-4.7V314H138.5z"/>
	<path id="XMLID_9_" class="st0" d="M154.2,300.6v50.3h-3.7v-50.3H154.2z"/>
	<path id="XMLID_11_" class="st0" d="M169.1,346.5v4.4h-4.7v-4.4H169.1z"/>
	<path id="XMLID_13_" class="st0" d="M178.6,350.9v-38.7c0-8.9,4.9-13.4,14.8-13.4c3,0,5.8,0.5,8.2,1.4v3.2
		c-2.3-0.9-5.1-1.4-8.3-1.4c-7.4,0-11.1,3.4-11.1,10.3v1.7h13.9v3.2h-13.9v33.8H178.6z"/>
	<path id="XMLID_15_" class="st0" d="M207.8,300.6v4.2h-4.4v-4.2H207.8z M207.5,314v36.9h-3.7V314H207.5z"/>
	<path id="XMLID_18_" class="st0" d="M219.4,350.9V314h2.6l0.5,4.7c4.7-3.1,9.3-4.7,13.9-4.7c9,0,13.5,3.9,13.5,11.6v25.3h-3.7
		v-25.4c0-5.5-3.3-8.2-9.9-8.2c-4.4,0-8.8,1.6-13.1,4.7v28.9H219.4z"/>
	<path id="XMLID_20_" class="st0" d="M259,340.5c0-7.3,4.9-11,14.6-11c3.4,0,7.1,0.2,11,0.7v-4.5c0-5.6-3.6-8.5-10.7-8.5
		c-3.8,0-7.7,0.6-11.7,1.8v-3.2c4-1.2,7.9-1.8,11.7-1.8c9.6,0,14.3,3.8,14.3,11.5v25.5h-2.3l-0.8-3.7c-4.6,2.4-9.1,3.7-13.4,3.7
		C263.3,350.9,259,347.4,259,340.5z M273.6,332.6c-7.3,0-10.9,2.6-10.9,7.7c0,4.9,3,7.4,9.1,7.4c4.5,0,8.8-1.2,12.8-3.6v-10.8
		C280.7,332.9,277.1,332.6,273.6,332.6z"/>
	<path id="XMLID_23_" class="st0" d="M299.6,350.9V314h2.6l0.5,4.7c4.7-3.1,9.3-4.7,13.9-4.7c9,0,13.5,3.9,13.5,11.6v25.3h-3.7
		v-25.4c0-5.5-3.3-8.2-9.9-8.2c-4.4,0-8.8,1.6-13.1,4.7v28.9H299.6z"/>
	<path id="XMLID_25_" class="st0" d="M368,349.9c-3,0.7-6.3,1.1-9.8,1.1c-12.4,0-18.6-6.4-18.6-19.2c0-11.8,6.2-17.8,18.6-17.8
		c3.5,0,6.8,0.4,9.8,1.1v3.2c-3.3-0.7-6.4-1.1-9.5-1.1c-10,0-14.9,4.9-14.9,14.6c0,10.7,5,16,14.9,16c3,0,6.2-0.4,9.5-1.1V349.9z"/>
	<path id="XMLID_27_" class="st0" d="M391.5,314c10.1,0,15.2,5.6,15.2,16.8c0,0.8,0,1.6-0.1,2.5h-28c0,9.7,5.1,14.5,15.3,14.5
		c4.2,0,7.9-0.6,11.2-1.8v3.2c-3.3,1.2-7,1.8-11.2,1.8c-12.7,0-19-6.3-19-18.9C374.8,320,380.4,314,391.5,314z M378.5,330h24.5
		c-0.1-8.6-4-12.9-11.6-12.9C383.3,317.1,378.9,321.4,378.5,330z"/>
</g>
</svg>
