<?xml version="1.0" encoding="utf-8"?>
<!-- Generator: Adobe Illustrator 19.0.0, SVG Export Plug-In . SVG Version: 6.00 Build 0)  -->
<svg version="1.1" id="Шар_1" xmlns="http://www.w3.org/2000/svg" xmlns:xlink="http://www.w3.org/1999/xlink" x="0px" y="0px"
	 viewBox="0 0 1020.5 340.2" style="enable-background:new 0 0 1020.5 340.2;" xml:space="preserve">
<style type="text/css">
	.st0{fill:#1E3583;}
	.st1{fill:none;stroke:#FFFFFF;stroke-width:5.6;stroke-miterlimit:10;}
	.st2{fill:#FFFFFF;stroke:#FFFFFF;stroke-width:5.6;stroke-miterlimit:10;}
	.st3{fill:#FFFFFF;}
</style>
<g>
	<path class="st0" d="M340.8,131.3v80.4h-5.9v-80.4H340.8z M396,131.3l-38.3,38.1l39.7,42.4h-8.8l-36.7-40.4v-3.5l36.1-36.6H396z"/>
	<path class="st0" d="M456.7,152.7v59.1h-4.3l-0.7-7.5c-6.8,5-14.4,7.5-22.7,7.5c-13.9,0-20.9-7.3-20.9-22v-37.1h5.9v37.2
		c0,11,5.1,16.5,15.3,16.5c7.5,0,14.6-2.5,21.5-7.5v-46.3H456.7z"/>
	<path class="st0" d="M523.3,152.7v59.1H519l-0.7-7.5c-6.8,5-14.4,7.5-22.7,7.5c-13.9,0-20.9-7.3-20.9-22v-37.1h5.9v37.2
		c0,11,5.1,16.5,15.3,16.5c7.5,0,14.6-2.5,21.5-7.5v-46.3H523.3z"/>
	<path class="st0" d="M548.4,131.3v80.4h-5.9v-80.4H548.4z"/>
	<path class="st0" d="M572.3,204.7v7h-7.6v-7H572.3z"/>
	<path class="st0" d="M587.5,211.8v-61.9c0-14.3,7.9-21.4,23.7-21.4c4.8,0,9.2,0.8,13.2,2.3v5.1c-3.7-1.5-8.1-2.3-13.2-2.3
		c-11.8,0-17.8,5.5-17.8,16.5v2.8h22.2v5.1h-22.2v54H587.5z"/>
	<path class="st0" d="M634.2,131.3v6.8h-7v-6.8H634.2z M633.6,152.7v59.1h-5.9v-59.1H633.6z"/>
	<path class="st0" d="M652.8,211.8v-59.1h4.2l0.7,7.5c7.5-5,14.9-7.5,22.2-7.5c14.4,0,21.5,6.2,21.5,18.6v40.4h-5.9v-40.6
		c0-8.8-5.3-13.2-15.9-13.2c-7.1,0-14.1,2.5-20.9,7.5v46.3H652.8z"/>
	<path class="st0" d="M716,195.1c0-11.7,7.8-17.6,23.4-17.6c5.5,0,11.4,0.4,17.7,1.1v-7.3c0-9-5.7-13.6-17-13.6
		c-6.1,0-12.3,0.9-18.7,2.8v-5.1c6.4-1.9,12.6-2.8,18.7-2.8c15.3,0,23,6.1,23,18.3v40.7h-3.6l-1.4-5.9c-7.4,3.9-14.5,5.9-21.5,5.9
		C722.9,211.8,716,206.2,716,195.1z M739.4,182.5c-11.7,0-17.5,4.1-17.5,12.4c0,7.9,4.9,11.8,14.6,11.8c7.2,0,14-1.9,20.5-5.7v-17.3
		C750.8,182.9,745,182.5,739.4,182.5z"/>
	<path class="st0" d="M781,211.8v-59.1h4.2l0.7,7.5c7.5-5,14.9-7.5,22.2-7.5c14.4,0,21.5,6.2,21.5,18.6v40.4h-5.9v-40.6
		c0-8.8-5.3-13.2-15.9-13.2c-7.1,0-14.1,2.5-20.9,7.5v46.3H781z"/>
	<path class="st0" d="M890.4,210.1c-4.9,1.1-10.1,1.7-15.8,1.7c-19.9,0-29.8-10.2-29.8-30.7c0-18.9,9.9-28.4,29.8-28.4
		c5.6,0,10.9,0.6,15.8,1.7v5.1c-5.3-1.1-10.3-1.7-15.2-1.7c-15.9,0-23.9,7.8-23.9,23.3c0,17.1,8,25.6,23.9,25.6
		c4.9,0,9.9-0.6,15.2-1.7V210.1z"/>
	<path class="st0" d="M928,152.7c16.2,0,24.2,8.9,24.2,26.8c0,1.3,0,2.6-0.1,4h-44.8c0,15.4,8.2,23.2,24.5,23.2
		c6.7,0,12.7-0.9,17.9-2.8v5.1c-5.2,1.9-11.2,2.8-17.9,2.8c-20.3,0-30.4-10.1-30.4-30.2C901.4,162.3,910.3,152.7,928,152.7z
		 M907.3,178.2h39.3c-0.2-13.7-6.4-20.6-18.6-20.6C914.9,157.6,908,164.5,907.3,178.2z"/>
</g>
<g>
	<path class="st0" d="M250.3,169.1c0.2-17.1,1.5-32.8,3.2-46.7c-0.3,0-0.6,0-0.9,0c-12-3.6-27.5-9.5-44.1-19.4
		c-18.6-11.2-32.7-21.4-41.9-31.3c-9,9.7-22.3,20.1-41.1,31.3c-16.9,10-32.7,15.7-44.8,19c0,0.1,0.1,0.3,0.1,0.4
		c1.8,13.8,3,29.4,3.2,46.5c0.1,18.4-1.4,36.5-3.2,51.1c11.3,2.3,27.5,5.4,44.6,14.9c19.8,11,33.3,24.1,41.5,33.4
		c8.4-9.5,22-22.5,41.5-33.4c16.1-9.1,34-14.2,45.2-16.8"/>
	<path class="st1" d="M224.8,136.1c-0.1,22.4,0.1,44.7,0,67.1"/>
	<path class="st2" d="M108.2,135.4c-0.1,22.4-0.1,44.8-0.2,67.2"/>
	<path class="st1" d="M225.2,203.6c-19.5,11.2-39,22.4-58.5,33.6c-19.4-11.4-38.9-22.8-58.3-34.2"/>
	<path class="st1" d="M225.2,137.6c-19.5,11.5-38.5,22-58,33.5"/>
	<path class="st1" d="M108.9,136.1c19.4,11.7,38.9,23.3,58.3,35"/>
	<path class="st1" d="M166.7,237.2c0.1-22.1,0.1-44.2,0.2-66.4"/>
	<path class="st1" d="M108.2,135.4c19.5-11.2,39-22.4,58.5-33.5c19.4,11.4,40,25.3,59.5,36.7"/>
	<path class="st3" d="M107,162.7c0.1-2.2,0-5.3-0.4-9c-0.5-4.4-1.1-9.1-4.1-14.2c-1.5-2.5-2.7-4.1-3.2-4.6c-1.6-1.8-3-2.9-4.9-4.3
		c-1.6-1.2-3.8-2.7-6.5-4.2c0.6,0.3,1.5,0.8,2.7,1.3c1.7,0.8,3,1.4,3.4,1.5c5.3,2.4,10.7,4.8,16,7.2c-0.6,3.6-1.2,7.3-1.7,11.3
		C107.7,153,107.2,158,107,162.7z"/>
	<path class="st3" d="M107.9,130.5c4.1-0.3,7.2-1.4,8.8-2.1c0.3-0.1,0.5-0.2,0.6-0.3c2.5-1.2,5.2-2.7,5.2-2.7c2.4-1.4,4-2.4,4.1-2.2
		c0.2,0.2-1.1,1.6-1.7,2.1c-1.7,1.7-5.6,5-15.6,10.8c-5-1.8-9-3.7-11.9-5.3c-0.4-0.2-1.6-0.5-3-1.1c-1.4-0.6-3.7-1.5-6.4-3.1
		c-0.1,0-0.2-0.2-0.2-0.2c4.5,1.9,8.5,2.9,11.3,3.4C101.8,130.3,104.4,130.7,107.9,130.5z"/>
	<path class="st3" d="M106.5,177.1c-0.2,0,0.1,3.9-0.4,9.6c-0.7,8.6-2.5,12.7-3.3,14.4c-1.3,2.6-2.5,4.2-2.9,4.8
		c-0.5,0.6-1.7,2.2-4.7,4.6c-3.9,3.2-7.4,5.1-7.4,5.1c0,0,1.5-0.9,3.7-2.1c1.5-0.8,2.6-1.4,3.3-1.7c5.2-2.7,10.4-5.4,15.6-8.1
		c-0.6-2.5-1.5-6.4-2.3-11.1C106.9,183.9,106.8,177,106.5,177.1z"/>
	<path class="st3" d="M108.7,209.8c4.1,0.1,7.3,1,8.9,1.6c0.3,0.1,0.5,0.2,0.6,0.3c2.5,1,5.3,2.4,5.3,2.4c2.5,1.2,4.1,2.2,4.3,1.9
		c0.2-0.2-1.2-1.5-1.8-2c-1.8-1.6-5.9-4.7-16.1-10c-4.9,2.1-8.8,4.2-11.6,5.9c-0.4,0.2-1.5,0.6-3,1.3c-1.4,0.7-3.6,1.7-6.2,3.4
		c-0.1,0-0.2,0.2-0.2,0.2c4.4-2.2,8.3-3.3,11.1-4C102.6,210.3,105.2,209.7,108.7,209.8z"/>
	<path class="st3" d="M226.4,177c-0.1,2.2,0,5.3,0.4,9c0.5,4.4,1.1,9.1,4.1,14.2c1.5,2.5,2.7,4.1,3.2,4.6c1.6,1.8,3,2.9,4.9,4.3
		c1.6,1.2,3.8,2.7,6.5,4.2c-0.6-0.3-1.5-0.8-2.7-1.3c-1.7-0.8-3-1.4-3.4-1.5c-5.3-2.4-10.7-4.8-16-7.2c0.6-3.6,1.2-7.3,1.7-11.3
		C225.8,186.8,226.2,181.8,226.4,177z"/>
	<path class="st3" d="M225.5,209.3c-3.8,0.3-7.3,1.6-8.8,2.1c-1,0.3-1.7,0.6-2.2,0.8c-5.4,2.2-8.7,4.4-8.8,4.3c-0.1-0.2,2.7-2,2.7-2
		c3.5-2.3,8.5-5.8,15.6-10.8c5,1.8,9,3.7,11.9,5.3c0.4,0.2,1.6,0.5,3,1.1c1.4,0.6,3.7,1.5,6.4,3.1c0.1,0,0.2,0.2,0.2,0.2
		c-4.5-1.9-8.5-2.9-11.3-3.4C231.6,209.5,229,209.1,225.5,209.3z"/>
</g>
</svg>
